ply
format ascii 1.0
comment Exported by Open CASCADE Technology [dev.opencascade.org]
comment Authors:comment pythonocc
element vertex 322
property float x
property float y
property float z
property float nx
property float ny
property float nz
property uchar red
property uchar green
property uchar blue
element face 614
property list uchar uint vertex_indices
property uint SurfaceID
end_header
3.67394e-15 -8.99856e-31 60 6.12323e-17 0 1 255 255 255
3.67394e-15 -8.99856e-31 60 6.12323e-17 -1.49976e-32 1 255 255 255
3.67394e-15 -8.99856e-31 -60 6.12323e-17 0 -1 255 255 255
14.3589 -3.51693e-15 -58.2565 0.239316 0 -0.970942 255 255 255
27.8834 -6.82946e-15 -53.1274 0.464723 0 -0.885456 255 255 255
39.7874 -9.74509e-15 -44.9106 0.663123 0 -0.748511 255 255 255
49.379 -1.20944e-14 -34.0839 0.822984 0 -0.568065 255 255 255
56.101 -1.37408e-14 -21.2763 0.935016 0 -0.354605 255 255 255
59.5625 -1.45886e-14 -7.2322 0.992709 0 -0.120537 255 255 255
59.5625 -1.45886e-14 7.2322 0.992709 0 0.120537 255 255 255
56.101 -1.37408e-14 21.2763 0.935016 0 0.354605 255 255 255
49.379 -1.20944e-14 34.0839 0.822984 0 0.568065 255 255 255
39.7874 -9.74509e-15 44.9106 0.663123 0 0.748511 255 255 255
27.8834 -6.82946e-15 53.1274 0.464723 0 0.885456 255 255 255
14.3589 -3.51693e-15 58.2565 0.239316 0 0.970942 255 255 255
3.67394e-15 -8.99856e-31 -60 6.12323e-17 -1.49976e-32 -1 255 255 255
14.3589 -3.51693e-15 -58.2565 0.239316 -5.86154e-17 -0.970942 255 255 255
27.8834 -6.82946e-15 -53.1274 0.464723 -1.13824e-16 -0.885456 255 255 255
39.7874 -9.74509e-15 -44.9106 0.663123 -1.62418e-16 -0.748511 255 255 255
49.379 -1.20944e-14 -34.0839 0.822984 -2.01573e-16 -0.568065 255 255 255
56.101 -1.37408e-14 -21.2763 0.935016 -2.29013e-16 -0.354605 255 255 255
59.5625 -1.45886e-14 -7.2322 0.992709 -2.43144e-16 -0.120537 255 255 255
59.5625 -1.45886e-14 7.2322 0.992709 -2.43144e-16 0.120537 255 255 255
56.101 -1.37408e-14 21.2763 0.935016 -2.29013e-16 0.354605 255 255 255
49.379 -1.20944e-14 34.0839 0.822984 -2.01573e-16 0.568065 255 255 255
39.7874 -9.74509e-15 44.9106 0.663123 -1.62418e-16 0.748511 255 255 255
27.8834 -6.82946e-15 53.1274 0.464723 -1.13824e-16 0.885456 255 255 255
14.3589 -3.51693e-15 58.2565 0.239316 -5.86154e-17 0.970942 255 255 255
14.2457 1.79965 -58.2565 0.237429 0.0299942 -0.970942 255 255 255
13.3506 5.28588 -58.2565 0.22251 0.088098 -0.970942 255 255 255
11.6166 8.43997 -58.2565 0.19361 0.140666 -0.970942 255 255 255
9.15273 11.0638 -58.2565 0.152546 0.184396 -0.970942 255 255 255
27.0074 6.93432 -53.1274 0.450123 0.115572 -0.885456 255 255 255
6.11374 12.9924 -58.2565 0.101896 0.216539 -0.970942 255 255 255
24.4344 13.4329 -53.1274 0.40724 0.223882 -0.885456 255 255 255
2.6906 14.1046 -58.2565 0.0448433 0.235077 -0.970942 255 255 255
20.3261 19.0875 -53.1274 0.338769 0.318125 -0.885456 255 255 255
39.4736 4.98668 -44.9106 0.657894 0.0831113 -0.748511 255 255 255
-0.901605 14.3306 -58.2565 -0.0150268 0.238843 -0.970942 255 255 255
14.9407 23.5427 -53.1274 0.249011 0.392379 -0.885456 255 255 255
36.9934 14.6467 -44.9106 0.616556 0.244112 -0.748511 255 255 255
-4.43716 13.6562 -58.2565 -0.0739526 0.227603 -0.970942 255 255 255
8.61644 26.5187 -53.1274 0.143607 0.441978 -0.885456 255 255 255
32.1886 23.3864 -44.9106 0.536478 0.389774 -0.748511 255 255 255
-7.6939 12.1237 -58.2565 -0.128232 0.202061 -0.970942 255 255 255
1.75081 27.8284 -53.1274 0.0291802 0.463806 -0.885456 255 255 255
25.3614 30.6567 -44.9106 0.42269 0.510945 -0.748511 255 255 255
-10.4672 9.82937 -58.2565 -0.174454 0.163823 -0.970942 255 255 255
47.8277 12.2801 -34.0839 0.797128 0.204668 -0.568065 255 255 255
-5.22483 27.3895 -53.1274 -0.0870804 0.456492 -0.885456 255 255 255
16.9406 36.0007 -44.9106 0.282344 0.600011 -0.748511 255 255 255
-12.5828 6.91747 -58.2565 -0.209714 0.115291 -0.970942 255 255 255
43.2712 23.7885 -34.0839 0.721186 0.396475 -0.568065 255 255 255
-11.8722 25.2296 -53.1274 -0.19787 0.420494 -0.885456 255 255 255
7.45541 39.0826 -44.9106 0.124257 0.651377 -0.748511 255 255 255
-13.9078 3.57092 -58.2565 -0.231797 0.0595154 -0.970942 255 255 255
35.9958 33.8023 -34.0839 0.599929 0.563371 -0.568065 255 255 255
-17.7735 21.4845 -53.1274 -0.296226 0.358075 -0.885456 255 255 255
55.6586 7.03132 -21.2763 0.927643 0.117189 -0.354605 255 255 255
-2.49827 39.7088 -44.9106 -0.0416378 0.661814 -0.748511 255 255 255
-14.3589 8.13511e-15 -58.2565 -0.239316 1.35585e-16 -0.970942 255 255 255
26.4586 41.6921 -34.0839 0.440977 0.694868 -0.568065 255 255 255
-22.5581 16.3894 -53.1274 -0.375969 0.273157 -0.885456 255 255 255
52.1614 20.6521 -21.2763 0.869356 0.344202 -0.354605 255 255 255
-12.295 37.84 -44.9106 -0.204916 0.630667 -0.748511 255 255 255
-13.9078 -3.57092 -58.2565 -0.231797 -0.0595154 -0.970942 255 255 255
15.259 46.9622 -34.0839 0.254316 0.782704 -0.568065 255 255 255
-25.9253 10.2646 -53.1274 -0.432089 0.171076 -0.885456 255 255 255
45.3866 32.9753 -21.2763 0.756444 0.549589 -0.354605 255 255 255
-21.3191 33.5936 -44.9106 -0.355319 0.559893 -0.748511 255 255 255
-12.5828 -6.91747 -58.2565 -0.209714 -0.115291 -0.970942 255 255 255
3.10054 49.2816 -34.0839 0.0516756 0.82136 -0.568065 255 255 255
-27.6635 3.49472 -53.1274 -0.461059 0.0582453 -0.885456 255 255 255
35.7601 43.2265 -21.2763 0.596002 0.720442 -0.354605 255 255 255
-29.0037 27.2363 -44.9106 -0.483396 0.453939 -0.748511 255 255 255
57.6913 14.8126 -7.2322 0.961521 0.246877 -0.120537 255 255 255
-10.4672 -9.82937 -58.2565 -0.174454 -0.163823 -0.970942 255 255 255
-9.25271 48.5044 -34.0839 -0.154212 0.808407 -0.568065 255 255 255
-27.6635 -3.49472 -53.1274 -0.461059 -0.0582453 -0.885456 255 255 255
23.8866 50.7617 -21.2763 0.398111 0.846028 -0.354605 255 255 255
-34.8659 19.1677 -44.9106 -0.581099 0.319462 -0.748511 255 255 255
52.195 28.6945 -7.2322 0.869917 0.478241 -0.120537 255 255 255
-7.6939 -12.1237 -58.2565 -0.128232 -0.202061 -0.970942 255 255 255
-21.0246 44.6795 -34.0839 -0.350409 0.744658 -0.568065 255 255 255
-25.9253 -10.2646 -53.1274 -0.432089 -0.171076 -0.885456 255 255 255
10.5123 55.1073 -21.2763 0.175205 0.918455 -0.354605 255 255 255
-38.5374 9.89471 -44.9106 -0.642289 0.164912 -0.748511 255 255 255
43.4192 40.7734 -7.2322 0.723654 0.679556 -0.120537 255 255 255
-4.43716 -13.6562 -58.2565 -0.0739526 -0.227603 -0.970942 255 255 255
-31.4754 38.0472 -34.0839 -0.52459 0.63412 -0.568065 255 255 255
59.0929 7.46516 7.2322 0.984881 0.124419 0.120537 255 255 255
-22.5581 -16.3894 -53.1274 -0.375969 -0.273157 -0.885456 255 255 255
-3.52261 55.9903 -21.2763 -0.0587102 0.933171 -0.354605 255 255 255
-39.7874 2.25417e-14 -44.9106 -0.663123 3.75695e-16 -0.748511 255 255 255
31.9152 50.2903 -7.2322 0.53192 0.838172 -0.120537 255 255 255
-0.901605 -14.3306 -58.2565 -0.0150268 -0.238843 -0.970942 255 255 255
-39.9485 29.0243 -34.0839 -0.665808 0.483738 -0.568065 255 255 255
55.3798 21.9264 7.2322 0.922997 0.365441 0.120537 255 255 255
-17.7735 -21.4845 -53.1274 -0.296226 -0.358075 -0.885456 255 255 255
-17.3362 53.3552 -21.2763 -0.288936 0.889253 -0.354605 255 255 255
-38.5374 -9.89471 -44.9106 -0.642289 -0.164912 -0.748511 255 255 255
18.4058 56.6473 -7.2322 0.306764 0.944122 -0.120537 255 255 255
2.6906 -14.1046 -58.2565 0.0448433 -0.235077 -0.970942 255 255 255
-45.9115 18.1776 -34.0839 -0.765191 0.302961 -0.568065 255 255 255
48.1871 35.01 7.2322 0.803118 0.5835 0.120537 255 255 255
-11.8722 -25.2296 -53.1274 -0.19787 -0.420494 -0.885456 255 255 255
-30.0604 47.3676 -21.2763 -0.501007 0.78946 -0.354605 255 255 255
-34.8659 -19.1677 -44.9106 -0.581099 -0.319462 -0.748511 255 255 255
3.73996 59.445 -7.2322 0.0623327 0.99075 -0.120537 255 255 255
6.11374 -12.9924 -58.2565 0.101896 -0.216539 -0.970942 255 255 255
-48.9897 6.18883 -34.0839 -0.816494 0.103147 -0.568065 255 255 255
37.9666 45.8937 7.2322 0.632776 0.764895 0.120537 255 255 255
-5.22483 -27.3895 -53.1274 -0.0870804 -0.456492 -0.885456 255 255 255
-40.8959 38.4038 -21.2763 -0.681598 0.640063 -0.354605 255 255 255
54.3385 13.9517 21.2763 0.905641 0.232529 0.354605 255 255 255
-29.0037 -27.2363 -44.9106 -0.483396 -0.453939 -0.748511 255 255 255
-11.1609 58.5075 -7.2322 -0.186015 0.975125 -0.120537 255 255 255
9.15273 -11.0638 -58.2565 0.152546 -0.184396 -0.970942 255 255 255
-48.9897 -6.18883 -34.0839 -0.816494 -0.103147 -0.568065 255 255 255
25.3605 53.8938 7.2322 0.422675 0.89823 0.120537 255 255 255
1.75081 -27.8284 -53.1274 0.0291802 -0.463806 -0.885456 255 255 255
-49.1617 27.0268 -21.2763 -0.819361 0.450447 -0.354605 255 255 255
49.1617 27.0268 21.2763 0.819361 0.450447 0.354605 255 255 255
-21.3191 -33.5936 -44.9106 -0.355319 -0.559893 -0.748511 255 255 255
-25.3605 53.8938 -7.2322 -0.422675 0.89823 -0.120537 255 255 255
11.6166 -8.43997 -58.2565 0.19361 -0.140666 -0.970942 255 255 255
-45.9115 -18.1776 -34.0839 -0.765191 -0.302961 -0.568065 255 255 255
11.1609 58.5075 7.2322 0.186015 0.975125 0.120537 255 255 255
8.61644 -26.5187 -53.1274 0.143607 -0.441978 -0.885456 255 255 255
-54.3385 13.9517 -21.2763 -0.905641 0.232529 -0.354605 255 255 255
40.8959 38.4038 21.2763 0.681598 0.640063 0.354605 255 255 255
-12.295 -37.84 -44.9106 -0.204916 -0.630667 -0.748511 255 255 255
-37.9666 45.8937 -7.2322 -0.632776 0.764895 -0.120537 255 255 255
13.3506 -5.28588 -58.2565 0.22251 -0.088098 -0.970942 255 255 255
48.9897 6.18883 34.0839 0.816494 0.103147 0.568065 255 255 255
-39.9485 -29.0243 -34.0839 -0.665808 -0.483738 -0.568065 255 255 255
-3.73996 59.445 7.2322 -0.0623327 0.99075 0.120537 255 255 255
14.9407 -23.5427 -53.1274 0.249011 -0.392379 -0.885456 255 255 255
-56.101 3.17842e-14 -21.2763 -0.935016 5.29737e-16 -0.354605 255 255 255
30.0604 47.3676 21.2763 0.501007 0.78946 0.354605 255 255 255
-2.49827 -39.7088 -44.9106 -0.0416378 -0.661814 -0.748511 255 255 255
-48.1871 35.01 -7.2322 -0.803118 0.5835 -0.120537 255 255 255
14.2457 -1.79965 -58.2565 0.237429 -0.0299942 -0.970942 255 255 255
45.9115 18.1776 34.0839 0.765191 0.302961 0.568065 255 255 255
-31.4754 -38.0472 -34.0839 -0.52459 -0.63412 -0.568065 255 255 255
-18.4058 56.6473 7.2322 -0.306764 0.944122 0.120537 255 255 255
20.3261 -19.0875 -53.1274 0.338769 -0.318125 -0.885456 255 255 255
-54.3385 -13.9517 -21.2763 -0.905641 -0.232529 -0.354605 255 255 255
17.3362 53.3552 21.2763 0.288936 0.889253 0.354605 255 255 255
7.45541 -39.0826 -44.9106 0.124257 -0.651377 -0.748511 255 255 255
-55.3798 21.9264 -7.2322 -0.922997 0.365441 -0.120537 255 255 255
39.9485 29.0243 34.0839 0.665808 0.483738 0.568065 255 255 255
-21.0246 -44.6795 -34.0839 -0.350409 -0.744658 -0.568065 255 255 255
-31.9152 50.2903 7.2322 -0.53192 0.838172 0.120537 255 255 255
24.4344 -13.4329 -53.1274 0.40724 -0.223882 -0.885456 255 255 255
-49.1617 -27.0268 -21.2763 -0.819361 -0.450447 -0.354605 255 255 255
3.52261 55.9903 21.2763 0.0587102 0.933171 0.354605 255 255 255
16.9406 -36.0007 -44.9106 0.282344 -0.600011 -0.748511 255 255 255
-59.0929 7.46516 -7.2322 -0.984881 0.124419 -0.120537 255 255 255
31.4754 38.0472 34.0839 0.52459 0.63412 0.568065 255 255 255
-9.25271 -48.5044 -34.0839 -0.154212 -0.808407 -0.568065 255 255 255
-43.4192 40.7734 7.2322 -0.723654 0.679556 0.120537 255 255 255
27.0074 -6.93432 -53.1274 0.450123 -0.115572 -0.885456 255 255 255
38.5374 9.89471 44.9106 0.642289 0.164912 0.748511 255 255 255
-40.8959 -38.4038 -21.2763 -0.681598 -0.640063 -0.354605 255 255 255
-10.5123 55.1073 21.2763 -0.175205 0.918455 0.354605 255 255 255
25.3614 -30.6567 -44.9106 0.42269 -0.510945 -0.748511 255 255 255
-59.0929 -7.46516 -7.2322 -0.984881 -0.124419 -0.120537 255 255 255
21.0246 44.6795 34.0839 0.350409 0.744658 0.568065 255 255 255
3.10054 -49.2816 -34.0839 0.0516756 -0.82136 -0.568065 255 255 255
-52.195 28.6945 7.2322 -0.869917 0.478241 0.120537 255 255 255
34.8659 19.1677 44.9106 0.581099 0.319462 0.748511 255 255 255
-30.0604 -47.3676 -21.2763 -0.501007 -0.78946 -0.354605 255 255 255
-23.8866 50.7617 21.2763 -0.398111 0.846028 0.354605 255 255 255
32.1886 -23.3864 -44.9106 0.536478 -0.389774 -0.748511 255 255 255
-55.3798 -21.9264 -7.2322 -0.922997 -0.365441 -0.120537 255 255 255
9.25271 48.5044 34.0839 0.154212 0.808407 0.568065 255 255 255
15.259 -46.9622 -34.0839 0.254316 -0.782704 -0.568065 255 255 255
-57.6913 14.8126 7.2322 -0.961521 0.246877 0.120537 255 255 255
29.0037 27.2363 44.9106 0.483396 0.453939 0.748511 255 255 255
-17.3362 -53.3552 -21.2763 -0.288936 -0.889253 -0.354605 255 255 255
-35.7601 43.2265 21.2763 -0.596002 0.720442 0.354605 255 255 255
36.9934 -14.6467 -44.9106 0.616556 -0.244112 -0.748511 255 255 255
27.6635 3.49472 53.1274 0.461059 0.0582453 0.885456 255 255 255
-48.1871 -35.01 -7.2322 -0.803118 -0.5835 -0.120537 255 255 255
-3.10054 49.2816 34.0839 -0.0516756 0.82136 0.568065 255 255 255
26.4586 -41.6921 -34.0839 0.440977 -0.694868 -0.568065 255 255 255
-59.5625 3.37454e-14 7.2322 -0.992709 5.62423e-16 0.120537 255 255 255
21.3191 33.5936 44.9106 0.355319 0.559893 0.748511 255 255 255
-3.52261 -55.9903 -21.2763 -0.0587102 -0.933171 -0.354605 255 255 255
-45.3866 32.9753 21.2763 -0.756444 0.549589 0.354605 255 255 255
39.4736 -4.98668 -44.9106 0.657894 -0.0831113 -0.748511 255 255 255
25.9253 10.2646 53.1274 0.432089 0.171076 0.885456 255 255 255
-37.9666 -45.8937 -7.2322 -0.632776 -0.764895 -0.120537 255 255 255
-15.259 46.9622 34.0839 -0.254316 0.782704 0.568065 255 255 255
35.9958 -33.8023 -34.0839 0.599929 -0.563371 -0.568065 255 255 255
-57.6913 -14.8126 7.2322 -0.961521 -0.246877 0.120537 255 255 255
12.295 37.84 44.9106 0.204916 0.630667 0.748511 255 255 255
10.5123 -55.1073 -21.2763 0.175205 -0.918455 -0.354605 255 255 255
-52.1614 20.6521 21.2763 -0.869356 0.344202 0.354605 255 255 255
22.5581 16.3894 53.1274 0.375969 0.273157 0.885456 255 255 255
-25.3605 -53.8938 -7.2322 -0.422675 -0.89823 -0.120537 255 255 255
-26.4586 41.6921 34.0839 -0.440977 0.694868 0.568065 255 255 255
43.2712 -23.7885 -34.0839 0.721186 -0.396475 -0.568065 255 255 255
-52.195 -28.6945 7.2322 -0.869917 -0.478241 0.120537 255 255 255
2.49827 39.7088 44.9106 0.0416378 0.661814 0.748511 255 255 255
23.8866 -50.7617 -21.2763 0.398111 -0.846028 -0.354605 255 255 255
-55.6586 7.03132 21.2763 -0.927643 0.117189 0.354605 255 255 255
17.7735 21.4845 53.1274 0.296226 0.358075 0.885456 255 255 255
-11.1609 -58.5075 -7.2322 -0.186015 -0.975125 -0.120537 255 255 255
-35.9958 33.8023 34.0839 -0.599929 0.563371 0.568065 255 255 255
47.8277 -12.2801 -34.0839 0.797128 -0.204668 -0.568065 255 255 255
13.9078 3.57092 58.2565 0.231797 0.0595154 0.970942 255 255 255
-43.4192 -40.7734 7.2322 -0.723654 -0.679556 0.120537 255 255 255
-7.45541 39.0826 44.9106 -0.124257 0.651377 0.748511 255 255 255
35.7601 -43.2265 -21.2763 0.596002 -0.720442 -0.354605 255 255 255
-55.6586 -7.03132 21.2763 -0.927643 -0.117189 0.354605 255 255 255
11.8722 25.2296 53.1274 0.19787 0.420494 0.885456 255 255 255
3.73996 -59.445 -7.2322 0.0623327 -0.99075 -0.120537 255 255 255
-43.2712 23.7885 34.0839 -0.721186 0.396475 0.568065 255 255 255
12.5828 6.91747 58.2565 0.209714 0.115291 0.970942 255 255 255
-31.9152 -50.2903 7.2322 -0.53192 -0.838172 0.120537 255 255 255
-16.9406 36.0007 44.9106 -0.282344 0.600011 0.748511 255 255 255
45.3866 -32.9753 -21.2763 0.756444 -0.549589 -0.354605 255 255 255
-52.1614 -20.6521 21.2763 -0.869356 -0.344202 0.354605 255 255 255
5.22483 27.3895 53.1274 0.0870804 0.456492 0.885456 255 255 255
18.4058 -56.6473 -7.2322 0.306764 -0.944122 -0.120537 255 255 255
-47.8277 12.2801 34.0839 -0.797128 0.204668 0.568065 255 255 255
10.4672 9.82937 58.2565 0.174454 0.163823 0.970942 255 255 255
-18.4058 -56.6473 7.2322 -0.306764 -0.944122 0.120537 255 255 255
-25.3614 30.6567 44.9106 -0.42269 0.510945 0.748511 255 255 255
52.1614 -20.6521 -21.2763 0.869356 -0.344202 -0.354605 255 255 255
-45.3866 -32.9753 21.2763 -0.756444 -0.549589 0.354605 255 255 255
-1.75081 27.8284 53.1274 -0.0291802 0.463806 0.885456 255 255 255
31.9152 -50.2903 -7.2322 0.53192 -0.838172 -0.120537 255 255 255
-49.379 2.79759e-14 34.0839 -0.822984 4.66265e-16 0.568065 255 255 255
7.6939 12.1237 58.2565 0.128232 0.202061 0.970942 255 255 255
-3.73996 -59.445 7.2322 -0.0623327 -0.99075 0.120537 255 255 255
-32.1886 23.3864 44.9106 -0.536478 0.389774 0.748511 255 255 255
55.6586 -7.03132 -21.2763 0.927643 -0.117189 -0.354605 255 255 255
-35.7601 -43.2265 21.2763 -0.596002 -0.720442 0.354605 255 255 255
-8.61644 26.5187 53.1274 -0.143607 0.441978 0.885456 255 255 255
43.4192 -40.7734 -7.2322 0.723654 -0.679556 -0.120537 255 255 255
-47.8277 -12.2801 34.0839 -0.797128 -0.204668 0.568065 255 255 255
4.43716 13.6562 58.2565 0.0739526 0.227603 0.970942 255 255 255
11.1609 -58.5075 7.2322 0.186015 -0.975125 0.120537 255 255 255
-36.9934 14.6467 44.9106 -0.616556 0.244112 0.748511 255 255 255
-23.8866 -50.7617 21.2763 -0.398111 -0.846028 0.354605 255 255 255
-14.9407 23.5427 53.1274 -0.249011 0.392379 0.885456 255 255 255
52.195 -28.6945 -7.2322 0.869917 -0.478241 -0.120537 255 255 255
-43.2712 -23.7885 34.0839 -0.721186 -0.396475 0.568065 255 255 255
0.901605 14.3306 58.2565 0.0150268 0.238843 0.970942 255 255 255
25.3605 -53.8938 7.2322 0.422675 -0.89823 0.120537 255 255 255
-39.4736 4.98668 44.9106 -0.657894 0.0831113 0.748511 255 255 255
-10.5123 -55.1073 21.2763 -0.175205 -0.918455 0.354605 255 255 255
-20.3261 19.0875 53.1274 -0.338769 0.318125 0.885456 255 255 255
57.6913 -14.8126 -7.2322 0.961521 -0.246877 -0.120537 255 255 255
-35.9958 -33.8023 34.0839 -0.599929 -0.563371 0.568065 255 255 255
-2.6906 14.1046 58.2565 -0.0448433 0.235077 0.970942 255 255 255
37.9666 -45.8937 7.2322 0.632776 -0.764895 0.120537 255 255 255
-39.4736 -4.98668 44.9106 -0.657894 -0.0831113 0.748511 255 255 255
3.52261 -55.9903 21.2763 0.0587102 -0.933171 0.354605 255 255 255
-24.4344 13.4329 53.1274 -0.40724 0.223882 0.885456 255 255 255
-26.4586 -41.6921 34.0839 -0.440977 -0.694868 0.568065 255 255 255
-6.11374 12.9924 58.2565 -0.101896 0.216539 0.970942 255 255 255
48.1871 -35.01 7.2322 0.803118 -0.5835 0.120537 255 255 255
-36.9934 -14.6467 44.9106 -0.616556 -0.244112 0.748511 255 255 255
17.3362 -53.3552 21.2763 0.288936 -0.889253 0.354605 255 255 255
-27.0074 6.93432 53.1274 -0.450123 0.115572 0.885456 255 255 255
-15.259 -46.9622 34.0839 -0.254316 -0.782704 0.568065 255 255 255
-9.15273 11.0638 58.2565 -0.152546 0.184396 0.970942 255 255 255
55.3798 -21.9264 7.2322 0.922997 -0.365441 0.120537 255 255 255
-32.1886 -23.3864 44.9106 -0.536478 -0.389774 0.748511 255 255 255
30.0604 -47.3676 21.2763 0.501007 -0.78946 0.354605 255 255 255
-27.8834 1.57974e-14 53.1274 -0.464723 2.63291e-16 0.885456 255 255 255
-3.10054 -49.2816 34.0839 -0.0516756 -0.82136 0.568065 255 255 255
-11.6166 8.43997 58.2565 -0.19361 0.140666 0.970942 255 255 255
59.0929 -7.46516 7.2322 0.984881 -0.124419 0.120537 255 255 255
-25.3614 -30.6567 44.9106 -0.42269 -0.510945 0.748511 255 255 255
40.8959 -38.4038 21.2763 0.681598 -0.640063 0.354605 255 255 255
-27.0074 -6.93432 53.1274 -0.450123 -0.115572 0.885456 255 255 255
9.25271 -48.5044 34.0839 0.154212 -0.808407 0.568065 255 255 255
-13.3506 5.28588 58.2565 -0.22251 0.088098 0.970942 255 255 255
-16.9406 -36.0007 44.9106 -0.282344 -0.600011 0.748511 255 255 255
49.1617 -27.0268 21.2763 0.819361 -0.450447 0.354605 255 255 255
-24.4344 -13.4329 53.1274 -0.40724 -0.223882 0.885456 255 255 255
21.0246 -44.6795 34.0839 0.350409 -0.744658 0.568065 255 255 255
-14.2457 1.79965 58.2565 -0.237429 0.0299942 0.970942 255 255 255
-7.45541 -39.0826 44.9106 -0.124257 -0.651377 0.748511 255 255 255
54.3385 -13.9517 21.2763 0.905641 -0.232529 0.354605 255 255 255
-20.3261 -19.0875 53.1274 -0.338769 -0.318125 0.885456 255 255 255
31.4754 -38.0472 34.0839 0.52459 -0.63412 0.568065 255 255 255
-14.2457 -1.79965 58.2565 -0.237429 -0.0299942 0.970942 255 255 255
2.49827 -39.7088 44.9106 0.0416378 -0.661814 0.748511 255 255 255
-14.9407 -23.5427 53.1274 -0.249011 -0.392379 0.885456 255 255 255
39.9485 -29.0243 34.0839 0.665808 -0.483738 0.568065 255 255 255
-13.3506 -5.28588 58.2565 -0.22251 -0.088098 0.970942 255 255 255
12.295 -37.84 44.9106 0.204916 -0.630667 0.748511 255 255 255
-8.61644 -26.5187 53.1274 -0.143607 -0.441978 0.885456 255 255 255
45.9115 -18.1776 34.0839 0.765191 -0.302961 0.568065 255 255 255
-11.6166 -8.43997 58.2565 -0.19361 -0.140666 0.970942 255 255 255
21.3191 -33.5936 44.9106 0.355319 -0.559893 0.748511 255 255 255
-1.75081 -27.8284 53.1274 -0.0291802 -0.463806 0.885456 255 255 255
48.9897 -6.18883 34.0839 0.816494 -0.103147 0.568065 255 255 255
-9.15273 -11.0638 58.2565 -0.152546 -0.184396 0.970942 255 255 255
29.0037 -27.2363 44.9106 0.483396 -0.453939 0.748511 255 255 255
5.22483 -27.3895 53.1274 0.0870804 -0.456492 0.885456 255 255 255
-6.11374 -12.9924 58.2565 -0.101896 -0.216539 0.970942 255 255 255
34.8659 -19.1677 44.9106 0.581099 -0.319462 0.748511 255 255 255
11.8722 -25.2296 53.1274 0.19787 -0.420494 0.885456 255 255 255
-2.6906 -14.1046 58.2565 -0.0448433 -0.235077 0.970942 255 255 255
38.5374 -9.89471 44.9106 0.642289 -0.164912 0.748511 255 255 255
17.7735 -21.4845 53.1274 0.296226 -0.358075 0.885456 255 255 255
0.901605 -14.3306 58.2565 0.0150268 -0.238843 0.970942 255 255 255
22.5581 -16.3894 53.1274 0.375969 -0.273157 0.885456 255 255 255
4.43716 -13.6562 58.2565 0.0739526 -0.227603 0.970942 255 255 255
25.9253 -10.2646 53.1274 0.432089 -0.171076 0.885456 255 255 255
7.6939 -12.1237 58.2565 0.128232 -0.202061 0.970942 255 255 255
27.6635 -3.49472 53.1274 0.461059 -0.0582453 0.885456 255 255 255
10.4672 -9.82937 58.2565 0.174454 -0.163823 0.970942 255 255 255
12.5828 -6.91747 58.2565 0.209714 -0.115291 0.970942 255 255 255
13.9078 -3.57092 58.2565 0.231797 -0.0595154 0.970942 255 255 255
3 28 3 2 1
3 28 4 3 1
3 29 28 2 1
3 30 29 2 1
3 31 30 2 1
3 32 4 28 1
3 32 28 29 1
3 33 31 2 1
3 34 32 29 1
3 34 29 30 1
3 35 33 2 1
3 36 34 30 1
3 36 30 31 1
3 37 5 4 1
3 37 6 5 1
3 37 4 32 1
3 38 35 2 1
3 39 36 31 1
3 39 31 33 1
3 40 37 32 1
3 40 32 34 1
3 41 38 2 1
3 42 39 33 1
3 42 33 35 1
3 43 34 36 1
3 43 40 34 1
3 44 41 2 1
3 45 35 38 1
3 45 42 35 1
3 46 43 36 1
3 46 36 39 1
3 47 44 2 1
3 48 6 37 1
3 48 37 40 1
3 49 45 38 1
3 49 38 41 1
3 50 46 39 1
3 50 39 42 1
3 51 47 2 1
3 52 48 40 1
3 52 40 43 1
3 53 41 44 1
3 53 49 41 1
3 54 42 45 1
3 54 50 42 1
3 55 51 2 1
3 56 43 46 1
3 56 52 43 1
3 57 53 44 1
3 57 44 47 1
3 58 7 6 1
3 58 8 7 1
3 58 6 48 1
3 59 45 49 1
3 59 54 45 1
3 60 2 15 1
3 60 55 2 1
3 61 46 50 1
3 61 56 46 1
3 62 47 51 1
3 62 57 47 1
3 63 48 52 1
3 63 58 48 1
3 64 49 53 1
3 64 59 49 1
3 65 60 15 1
3 66 50 54 1
3 66 61 50 1
3 67 51 55 1
3 67 62 51 1
3 68 52 56 1
3 68 63 52 1
3 69 53 57 1
3 69 64 53 1
3 70 65 15 1
3 71 54 59 1
3 71 66 54 1
3 72 67 55 1
3 72 55 60 1
3 73 68 56 1
3 73 56 61 1
3 74 57 62 1
3 74 69 57 1
3 75 58 63 1
3 75 8 58 1
3 76 70 15 1
3 77 71 59 1
3 77 59 64 1
3 78 72 60 1
3 78 60 65 1
3 79 61 66 1
3 79 73 61 1
3 80 62 67 1
3 80 74 62 1
3 81 63 68 1
3 81 75 63 1
3 82 76 15 1
3 83 64 69 1
3 83 77 64 1
3 84 65 70 1
3 84 78 65 1
3 85 66 71 1
3 85 79 66 1
3 86 67 72 1
3 86 80 67 1
3 87 81 68 1
3 87 68 73 1
3 88 82 15 1
3 89 83 69 1
3 89 69 74 1
3 90 9 8 1
3 90 10 9 1
3 90 8 75 1
3 91 84 70 1
3 91 70 76 1
3 92 85 71 1
3 92 71 77 1
3 93 86 72 1
3 93 72 78 1
3 94 73 79 1
3 94 87 73 1
3 95 88 15 1
3 96 89 74 1
3 96 74 80 1
3 97 75 81 1
3 97 90 75 1
3 98 91 76 1
3 98 76 82 1
3 99 92 77 1
3 99 77 83 1
3 100 78 84 1
3 100 93 78 1
3 101 79 85 1
3 101 94 79 1
3 102 95 15 1
3 103 96 80 1
3 103 80 86 1
3 104 81 87 1
3 104 97 81 1
3 105 82 88 1
3 105 98 82 1
3 106 83 89 1
3 106 99 83 1
3 107 84 91 1
3 107 100 84 1
3 108 85 92 1
3 108 101 85 1
3 109 102 15 1
3 110 86 93 1
3 110 103 86 1
3 111 104 87 1
3 111 87 94 1
3 112 88 95 1
3 112 105 88 1
3 113 89 96 1
3 113 106 89 1
3 114 90 97 1
3 114 10 90 1
3 115 91 98 1
3 115 107 91 1
3 116 108 92 1
3 116 92 99 1
3 117 109 15 1
3 118 93 100 1
3 118 110 93 1
3 119 111 94 1
3 119 94 101 1
3 120 112 95 1
3 120 95 102 1
3 121 96 103 1
3 121 113 96 1
3 122 114 97 1
3 122 97 104 1
3 123 115 98 1
3 123 98 105 1
3 124 99 106 1
3 124 116 99 1
3 125 117 15 1
3 126 118 100 1
3 126 100 107 1
3 127 119 101 1
3 127 101 108 1
3 128 120 102 1
3 128 102 109 1
3 129 103 110 1
3 129 121 103 1
3 130 122 104 1
3 130 104 111 1
3 131 105 112 1
3 131 123 105 1
3 132 106 113 1
3 132 124 106 1
3 133 125 15 1
3 134 11 10 1
3 134 12 11 1
3 134 10 114 1
3 135 107 115 1
3 135 126 107 1
3 136 108 116 1
3 136 127 108 1
3 137 128 109 1
3 137 109 117 1
3 138 129 110 1
3 138 110 118 1
3 139 111 119 1
3 139 130 111 1
3 140 131 112 1
3 140 112 120 1
3 141 113 121 1
3 141 132 113 1
3 142 15 16 1
3 142 16 17 1
3 142 133 15 1
3 143 114 122 1
3 143 134 114 1
3 144 135 115 1
3 144 115 123 1
3 145 116 124 1
3 145 136 116 1
3 146 117 125 1
3 146 137 117 1
3 147 138 118 1
3 147 118 126 1
3 148 139 119 1
3 148 119 127 1
3 149 120 128 1
3 149 140 120 1
3 150 121 129 1
3 150 141 121 1
3 151 143 122 1
3 151 122 130 1
3 152 123 131 1
3 152 144 123 1
3 153 145 124 1
3 153 124 132 1
3 154 146 125 1
3 154 125 133 1
3 155 147 126 1
3 155 126 135 1
3 156 127 136 1
3 156 148 127 1
3 157 149 128 1
3 157 128 137 1
3 158 129 138 1
3 158 150 129 1
3 159 151 130 1
3 159 130 139 1
3 160 152 131 1
3 160 131 140 1
3 161 153 132 1
3 161 132 141 1
3 162 154 133 1
3 162 142 17 1
3 162 133 142 1
3 163 12 134 1
3 163 134 143 1
3 164 135 144 1
3 164 155 135 1
3 165 136 145 1
3 165 156 136 1
3 166 157 137 1
3 166 137 146 1
3 167 158 138 1
3 167 138 147 1
3 168 159 139 1
3 168 139 148 1
3 169 160 140 1
3 169 140 149 1
3 170 141 150 1
3 170 161 141 1
3 171 143 151 1
3 171 163 143 1
3 172 164 144 1
3 172 144 152 1
3 173 145 153 1
3 173 165 145 1
3 174 146 154 1
3 174 166 146 1
3 175 147 155 1
3 175 167 147 1
3 176 168 148 1
3 176 148 156 1
3 177 149 157 1
3 177 169 149 1
3 178 150 158 1
3 178 170 150 1
3 179 151 159 1
3 179 171 151 1
3 180 172 152 1
3 180 152 160 1
3 181 153 161 1
3 181 173 153 1
3 182 174 154 1
3 182 154 162 1
3 183 12 163 1
3 183 13 12 1
3 183 14 13 1
3 184 175 155 1
3 184 155 164 1
3 185 156 165 1
3 185 176 156 1
3 186 177 157 1
3 186 157 166 1
3 187 158 167 1
3 187 178 158 1
3 188 179 159 1
3 188 159 168 1
3 189 180 160 1
3 189 160 169 1
3 190 181 161 1
3 190 161 170 1
3 191 182 162 1
3 191 17 18 1
3 191 18 19 1
3 191 162 17 1
3 192 183 163 1
3 192 163 171 1
3 193 164 172 1
3 193 184 164 1
3 194 165 173 1
3 194 185 165 1
3 195 186 166 1
3 195 166 174 1
3 196 187 167 1
3 196 167 175 1
3 197 188 168 1
3 197 168 176 1
3 198 189 169 1
3 198 169 177 1
3 199 170 178 1
3 199 190 170 1
3 200 171 179 1
3 200 192 171 1
3 201 193 172 1
3 201 172 180 1
3 202 173 181 1
3 202 194 173 1
3 203 174 182 1
3 203 195 174 1
3 204 175 184 1
3 204 196 175 1
3 205 176 185 1
3 205 197 176 1
3 206 177 186 1
3 206 198 177 1
3 207 178 187 1
3 207 199 178 1
3 208 200 179 1
3 208 179 188 1
3 209 180 189 1
3 209 201 180 1
3 210 202 181 1
3 210 181 190 1
3 211 182 191 1
3 211 191 19 1
3 211 203 182 1
3 212 0 14 1
3 212 14 183 1
3 212 183 192 1
3 213 184 193 1
3 213 204 184 1
3 214 205 185 1
3 214 185 194 1
3 215 186 195 1
3 215 206 186 1
3 216 187 196 1
3 216 207 187 1
3 217 188 197 1
3 217 208 188 1
3 218 209 189 1
3 218 189 198 1
3 219 190 199 1
3 219 210 190 1
3 220 212 192 1
3 220 0 212 1
3 220 192 200 1
3 221 213 193 1
3 221 193 201 1
3 222 214 194 1
3 222 194 202 1
3 223 195 203 1
3 223 215 195 1
3 224 216 196 1
3 224 196 204 1
3 225 217 197 1
3 225 197 205 1
3 226 218 198 1
3 226 198 206 1
3 227 219 199 1
3 227 199 207 1
3 228 0 220 1
3 228 220 200 1
3 228 200 208 1
3 229 221 201 1
3 229 201 209 1
3 230 222 202 1
3 230 202 210 1
3 231 223 203 1
3 231 203 211 1
3 232 204 213 1
3 232 224 204 1
3 233 225 205 1
3 233 205 214 1
3 234 206 215 1
3 234 226 206 1
3 235 207 216 1
3 235 227 207 1
3 236 0 228 1
3 236 228 208 1
3 236 208 217 1
3 237 209 218 1
3 237 229 209 1
3 238 210 219 1
3 238 230 210 1
3 239 19 20 1
3 239 20 21 1
3 239 231 211 1
3 239 211 19 1
3 240 232 213 1
3 240 213 221 1
3 241 214 222 1
3 241 233 214 1
3 242 234 215 1
3 242 215 223 1
3 243 216 224 1
3 243 235 216 1
3 244 217 225 1
3 244 0 236 1
3 244 236 217 1
3 245 237 218 1
3 245 218 226 1
3 246 238 219 1
3 246 219 227 1
3 247 221 229 1
3 247 240 221 1
3 248 222 230 1
3 248 241 222 1
3 249 223 231 1
3 249 242 223 1
3 250 224 232 1
3 250 243 224 1
3 251 225 233 1
3 251 244 225 1
3 251 0 244 1
3 252 245 226 1
3 252 226 234 1
3 253 246 227 1
3 253 227 235 1
3 254 247 229 1
3 254 229 237 1
3 255 230 238 1
3 255 248 230 1
3 256 249 231 1
3 256 239 21 1
3 256 231 239 1
3 257 250 232 1
3 257 232 240 1
3 258 251 233 1
3 258 233 241 1
3 258 0 251 1
3 259 252 234 1
3 259 234 242 1
3 260 253 235 1
3 260 235 243 1
3 261 254 237 1
3 261 237 245 1
3 262 255 238 1
3 262 238 246 1
3 263 240 247 1
3 263 257 240 1
3 264 241 248 1
3 264 258 241 1
3 264 0 258 1
3 265 242 249 1
3 265 259 242 1
3 266 260 243 1
3 266 243 250 1
3 267 261 245 1
3 267 245 252 1
3 268 246 253 1
3 268 262 246 1
3 269 263 247 1
3 269 247 254 1
3 270 264 248 1
3 270 248 255 1
3 270 0 264 1
3 271 249 256 1
3 271 265 249 1
3 272 250 257 1
3 272 266 250 1
3 273 267 252 1
3 273 252 259 1
3 274 268 253 1
3 274 253 260 1
3 275 254 261 1
3 275 269 254 1
3 276 0 270 1
3 276 270 255 1
3 276 255 262 1
3 277 21 22 1
3 277 22 23 1
3 277 256 21 1
3 277 271 256 1
3 278 257 263 1
3 278 272 257 1
3 279 259 265 1
3 279 273 259 1
3 280 260 266 1
3 280 274 260 1
3 281 261 267 1
3 281 275 261 1
3 282 262 268 1
3 282 0 276 1
3 282 276 262 1
3 283 263 269 1
3 283 278 263 1
3 284 265 271 1
3 284 279 265 1
3 285 266 272 1
3 285 280 266 1
3 286 281 267 1
3 286 267 273 1
3 287 282 268 1
3 287 268 274 1
3 287 0 282 1
3 288 283 269 1
3 288 269 275 1
3 289 284 271 1
3 289 277 23 1
3 289 271 277 1
3 290 285 272 1
3 290 272 278 1
3 291 273 279 1
3 291 286 273 1
3 292 1 0 1
3 292 274 280 1
3 292 287 274 1
3 292 0 287 1
3 293 275 281 1
3 293 288 275 1
3 294 290 278 1
3 294 278 283 1
3 295 279 284 1
3 295 291 279 1
3 296 280 285 1
3 296 1 292 1
3 296 292 280 1
3 297 293 281 1
3 297 281 286 1
3 298 294 283 1
3 298 283 288 1
3 299 284 289 1
3 299 295 284 1
3 300 285 290 1
3 300 296 285 1
3 300 1 296 1
3 301 286 291 1
3 301 297 286 1
3 302 288 293 1
3 302 298 288 1
3 303 23 24 1
3 303 24 25 1
3 303 289 23 1
3 303 299 289 1
3 304 290 294 1
3 304 300 290 1
3 304 1 300 1
3 305 291 295 1
3 305 301 291 1
3 306 302 293 1
3 306 293 297 1
3 307 294 298 1
3 307 1 304 1
3 307 304 294 1
3 308 295 299 1
3 308 305 295 1
3 309 297 301 1
3 309 306 297 1
3 310 1 307 1
3 310 298 302 1
3 310 307 298 1
3 311 303 25 1
3 311 299 303 1
3 311 308 299 1
3 312 301 305 1
3 312 309 301 1
3 313 302 306 1
3 313 1 310 1
3 313 310 302 1
3 314 305 308 1
3 314 312 305 1
3 315 313 306 1
3 315 306 309 1
3 315 1 313 1
3 316 314 308 1
3 316 308 311 1
3 317 1 315 1
3 317 315 309 1
3 317 309 312 1
3 318 316 311 1
3 318 25 26 1
3 318 26 27 1
3 318 311 25 1
3 319 1 317 1
3 319 312 314 1
3 319 317 312 1
3 320 1 319 1
3 320 319 314 1
3 320 314 316 1
3 321 318 27 1
3 321 1 320 1
3 321 320 316 1
3 321 27 1 1
3 321 316 318 1
